De BluRay rip van De Storm.

Media-Info:

General
Complete name : 	De.Storm.2009.720p.DUTCH.BluRay.x264-HDEX.mkv
Format : 	Matroska
File size : 	4.37 GiB
Duration : 	1h 36mn
Overall bit rate : 	6 478 Kbps
Encoded date : 	UTC 2010-01-09 01:17:36
Writing application : 	mkvmerge v2.9.8 ('C'est le bon') built on Aug 13 2009 
Writing library : 	libebml v0.7.7 + libmatroska v0.8.1

Video
ID : 	1
Format : 	AVC
Format/Info : 	Advanced Video Codec
Format profile : 	High@L4.1
Format settings, CABAC : 	Yes
Format settings, ReFrames : 	5 frames
Muxing mode : 	Container profile=Unknown@4.1
Codec ID : 	V_MPEG4/ISO/AVC
Duration : 	1h 36mn
Bit rate : 	4 839 Kbps
Nominal bit rate : 	4 972 Kbps
Width : 	1 280 pixels
Height : 	544 pixels
Display aspect ratio : 	2.35:1
Frame rate : 	24.000 fps
Resolution : 	24 bits
Colorimetry : 	4:2:0
Scan type : 	Progressive
Bits/(Pixel*Frame) : 	0.290
Stream size : 	3.27 GiB (75%)
Writing library : 	x264 core 80 r1376 3feaec2


Audio
ID : 	2
Format : 	DTS
Format/Info : 	Digital Theater Systems
Codec ID : 	A_DTS
Duration : 	1h 36mn
Bit rate mode : 	Constant
Bit rate : 	1 510 Kbps
Channel(s) : 	6 channels
Channel positions : 	Front: L C R, Surround: L R, LFE
Sampling rate : 	48.0 KHz
Resolution : 	24 bits
Stream size : 	1.02 GiB (23%)
Title : 	Dutch
Language : 	Dutch